<svg width="20" height="20" viewBox="0 0 20 20" fill="none" xmlns="http://www.w3.org/2000/svg">
<path d="M19.6344 8.95833L12.9677 0.625C12.8117 0.430105 12.6138 0.272757 12.3888 0.164579C12.1638 0.0564004 11.9174 0.000156017 11.6677 0L1.66771 0L1.48104 0.0100001C1.18466 0.0432359 0.902632 0.15539 0.664368 0.334763C0.426102 0.514136 0.240334 0.754157 0.126439 1.02979C0.0125413 1.30542 -0.02531 1.60656 0.0168347 1.90181C0.0589795 2.19705 0.179575 2.47558 0.366042 2.70833L6.20104 10L0.367709 17.2917C0.171513 17.5367 0.048512 17.8322 0.0128655 18.1441C-0.0227828 18.4559 0.0303731 18.7716 0.166213 19.0546C0.302052 19.3376 0.515049 19.5764 0.780688 19.7437C1.04632 19.911 1.3538 19.9998 1.66771 20L11.6677 20C11.9174 19.9998 12.1638 19.9436 12.3888 19.8354C12.6138 19.7272 12.8117 19.5699 12.9677 19.375L19.6344 11.0417C19.871 10.7461 20 10.3787 20 10C20 9.62132 19.871 9.25394 19.6344 8.95833Z" fill="#0102EF"/>
</svg>
