<svg width="80" height="80" viewBox="0 0 80 80" fill="none" xmlns="http://www.w3.org/2000/svg">
<circle cx="40" cy="40" r="40" fill="#0102EF" fill-opacity="0.53"/>
<g clip-path="url(#clip0_623_456)">
<path d="M33.7503 21.25C34.1238 21.2499 34.4905 21.3502 34.8119 21.5404C35.1334 21.7307 35.3978 22.0038 35.5774 22.3313L35.6837 22.5604L39.8503 32.9771C40.0181 33.3962 40.0453 33.8584 39.9277 34.2943C39.8101 34.7301 39.5541 35.116 39.1982 35.3938L38.9899 35.5354L35.5024 37.6271L35.6337 37.8417C37.2936 40.4771 39.5233 42.7068 42.1587 44.3667L42.3712 44.4958L44.4649 41.0125C44.6969 40.6252 45.0485 40.3237 45.4667 40.1535C45.8849 39.9833 46.3471 39.9535 46.7837 40.0688L47.0232 40.15L57.4399 44.3167C57.7868 44.455 58.09 44.6841 58.318 44.9799C58.546 45.2757 58.6903 45.6273 58.7357 45.9979L58.7503 46.25V54.5833C58.7503 58.0354 55.9524 60.8333 52.3753 60.8292C34.5024 59.7438 20.2545 45.4958 19.167 27.5C19.1669 25.9058 19.776 24.3718 20.8697 23.212C21.9633 22.0521 23.4589 21.3539 25.0503 21.2604L25.417 21.25H33.7503Z" fill="white"/>
</g>
<defs>
<clipPath id="clip0_623_456">
<rect width="50" height="50" fill="white" transform="translate(15 15)"/>
</clipPath>
</defs>
</svg>
