<svg width="80" height="80" viewBox="0 0 80 80" fill="none" xmlns="http://www.w3.org/2000/svg">
<circle cx="40" cy="40" r="40" fill="#0102EF" fill-opacity="0.53"/>
<g clip-path="url(#clip0_623_454)">
<path d="M60.8337 30.6979V50.4167C60.8338 52.0109 60.2247 53.5448 59.131 54.7047C58.0373 55.8646 56.5418 56.5627 54.9503 56.6563L54.5837 56.6667H25.417C23.8228 56.6668 22.2888 56.0577 21.1289 54.964C19.9691 53.8703 19.2709 52.3748 19.1774 50.7834L19.167 50.4167V30.6979L38.8441 43.8167L39.0857 43.9542C39.3705 44.0933 39.6833 44.1657 40.0003 44.1657C40.3173 44.1657 40.6301 44.0933 40.9149 43.9542L41.1566 43.8167L60.8337 30.6979Z" fill="white"/>
<path d="M54.5833 23.3333C56.8333 23.3333 58.8063 24.5208 59.9062 26.3062L40 39.5771L20.0938 26.3062C20.6161 25.4578 21.3338 24.7466 22.1869 24.232C23.04 23.7174 24.0038 23.4143 24.9979 23.3479L25.4167 23.3333H54.5833Z" fill="white"/>
</g>
<defs>
<clipPath id="clip0_623_454">
<rect width="50" height="50" fill="white" transform="translate(15 15)"/>
</clipPath>
</defs>
</svg>
