<svg width="80" height="80" viewBox="0 0 80 80" fill="none" xmlns="http://www.w3.org/2000/svg">
<circle cx="40" cy="40" r="40" fill="#0102EF" fill-opacity="0.53"/>
<g clip-path="url(#clip0_623_455)">
<path d="M53.2584 24.6583C56.7008 28.1003 58.6696 32.7461 58.7485 37.6134C58.8274 42.4807 57.0103 47.1879 53.6814 50.7396L53.2584 51.1771L44.4189 60.0146C43.2973 61.1355 41.7915 61.7882 40.2067 61.8404C38.6219 61.8926 37.0764 61.3405 35.8834 60.2958L35.5834 60.0146L26.7418 51.175C23.2255 47.6587 21.25 42.8895 21.25 37.9167C21.25 32.9438 23.2255 28.1747 26.7418 24.6583C30.2581 21.142 35.0273 19.1666 40.0001 19.1666C44.973 19.1666 49.7421 21.142 53.2584 24.6583ZM40.0001 31.6667C39.1794 31.6667 38.3666 31.8283 37.6083 32.1424C36.8501 32.4565 36.1611 32.9169 35.5807 33.4973C35.0003 34.0776 34.54 34.7666 34.2259 35.5249C33.9118 36.2832 33.7501 37.0959 33.7501 37.9167C33.7501 38.7374 33.9118 39.5502 34.2259 40.3085C34.54 41.0667 35.0003 41.7557 35.5807 42.3361C36.1611 42.9165 36.8501 43.3768 37.6083 43.6909C38.3666 44.005 39.1794 44.1667 40.0001 44.1667C41.6577 44.1667 43.2474 43.5082 44.4195 42.3361C45.5916 41.164 46.2501 39.5743 46.2501 37.9167C46.2501 36.2591 45.5916 34.6694 44.4195 33.4973C43.2474 32.3252 41.6577 31.6667 40.0001 31.6667Z" fill="white"/>
</g>
<defs>
<clipPath id="clip0_623_455">
<rect width="50" height="50" fill="white" transform="translate(15 15)"/>
</clipPath>
</defs>
</svg>
